<svg width="99" height="99" viewBox="0 0 99 99" fill="none" xmlns="http://www.w3.org/2000/svg">
<circle cx="49.5" cy="49.5" r="49.5" fill="#8BE16D"/>
<path d="M67.5 45.25L60.0234 45.6484C59.9922 44.1797 59.7656 42.75 59.3438 41.3594C58.9219 39.9688 58.2891 38.7344 57.4453 37.6562C56.6172 36.5625 55.5859 35.6875 54.3516 35.0312C53.1328 34.3594 51.7109 34.0234 50.0859 34.0234C48.6641 34.0234 47.3984 34.2578 46.2891 34.7266C45.1797 35.1797 44.1953 35.7969 43.3359 36.5781C42.4922 37.3594 41.7656 38.2812 41.1562 39.3438C40.5625 40.3906 40.0781 41.5078 39.7031 42.6953C39.3281 43.8672 39.0547 45.0859 38.8828 46.3516C38.7109 47.6016 38.625 48.8203 38.625 50.0078C38.625 51.2578 38.6953 52.5312 38.8359 53.8281C38.9922 55.1094 39.2422 56.3594 39.5859 57.5781C39.9297 58.7812 40.3828 59.9219 40.9453 61C41.5234 62.0625 42.2344 62.9922 43.0781 63.7891C43.9375 64.5859 44.9375 65.2188 46.0781 65.6875C47.2344 66.1406 48.5703 66.3672 50.0859 66.3672C51.7109 66.3672 53.1172 66.0781 54.3047 65.5C55.5078 64.9219 56.5078 64.1406 57.3047 63.1562C58.1016 62.1719 58.7109 61.0234 59.1328 59.7109C59.5547 58.3984 59.8047 57.0078 59.8828 55.5391L67.2188 55.9141C66.625 57.8672 65.7578 59.6328 64.6172 61.2109C63.4922 62.7891 62.1719 64.1328 60.6562 65.2422C59.1562 66.3516 57.4844 67.2031 55.6406 67.7969C53.8125 68.3906 51.8984 68.6875 49.8984 68.6875C47.1328 68.6875 44.6484 68.2188 42.4453 67.2812C40.2578 66.3594 38.3906 65.0703 36.8438 63.4141C35.3125 61.7578 34.1328 59.7891 33.3047 57.5078C32.4922 55.2266 32.0859 52.7266 32.0859 50.0078C32.0859 47.3984 32.5156 44.9766 33.375 42.7422C34.25 40.5078 35.4688 38.5781 37.0312 36.9531C38.6094 35.3125 40.4922 34.0312 42.6797 33.1094C44.8672 32.1875 47.2734 31.7266 49.8984 31.7266C51.9922 31.7266 53.9922 32.0391 55.8984 32.6641C57.8203 33.2734 59.5547 34.1641 61.1016 35.3359C62.6641 36.4922 64 37.9062 65.1094 39.5781C66.2188 41.25 67.0156 43.1406 67.5 45.25Z" fill="white"/>
</svg>
