<svg width="99" height="99" viewBox="0 0 99 99" fill="none" xmlns="http://www.w3.org/2000/svg">
<circle cx="49.5" cy="49.5" r="49.5" fill="#E790DE"/>
<path d="M40.2422 32.875L39.9609 54.2734C42.0703 54.3672 44.1797 54.4141 46.2891 54.4141C46.9922 54.4141 47.875 54.4141 48.9375 54.4141C50 54.3984 51.1172 54.3828 52.2891 54.3672C53.4609 54.3359 54.6328 54.3047 55.8047 54.2734C56.9766 54.2422 58.0312 54.1953 58.9688 54.1328L59.25 31.9141L66.1641 32.6875L63.6328 66.9062H58.8281L58.9219 56.6406C57.9062 56.5469 56.8047 56.4766 55.6172 56.4297C54.4297 56.3672 53.2578 56.3203 52.1016 56.2891C50.9453 56.2578 49.8438 56.2344 48.7969 56.2188C47.75 56.2031 46.8516 56.1953 46.1016 56.1953C45.0703 56.1953 44.0391 56.2109 43.0078 56.2422C41.9766 56.2578 40.9453 56.3047 39.9141 56.3828L39.7734 67.7266L34.6406 67.9141L33.4688 33.6484L40.2422 32.875Z" fill="white"/>
</svg>
