<svg width="225" height="99" viewBox="0 0 225 99" fill="none" xmlns="http://www.w3.org/2000/svg">
<circle cx="49.5" cy="49.5" r="49.5" fill="#8BE16D"/>
<path d="M67.5 45.25L60.0234 45.6484C59.9922 44.1797 59.7656 42.75 59.3438 41.3594C58.9219 39.9688 58.2891 38.7344 57.4453 37.6562C56.6172 36.5625 55.5859 35.6875 54.3516 35.0312C53.1328 34.3594 51.7109 34.0234 50.0859 34.0234C48.6641 34.0234 47.3984 34.2578 46.2891 34.7266C45.1797 35.1797 44.1953 35.7969 43.3359 36.5781C42.4922 37.3594 41.7656 38.2812 41.1562 39.3438C40.5625 40.3906 40.0781 41.5078 39.7031 42.6953C39.3281 43.8672 39.0547 45.0859 38.8828 46.3516C38.7109 47.6016 38.625 48.8203 38.625 50.0078C38.625 51.2578 38.6953 52.5312 38.8359 53.8281C38.9922 55.1094 39.2422 56.3594 39.5859 57.5781C39.9297 58.7812 40.3828 59.9219 40.9453 61C41.5234 62.0625 42.2344 62.9922 43.0781 63.7891C43.9375 64.5859 44.9375 65.2188 46.0781 65.6875C47.2344 66.1406 48.5703 66.3672 50.0859 66.3672C51.7109 66.3672 53.1172 66.0781 54.3047 65.5C55.5078 64.9219 56.5078 64.1406 57.3047 63.1562C58.1016 62.1719 58.7109 61.0234 59.1328 59.7109C59.5547 58.3984 59.8047 57.0078 59.8828 55.5391L67.2188 55.9141C66.625 57.8672 65.7578 59.6328 64.6172 61.2109C63.4922 62.7891 62.1719 64.1328 60.6562 65.2422C59.1562 66.3516 57.4844 67.2031 55.6406 67.7969C53.8125 68.3906 51.8984 68.6875 49.8984 68.6875C47.1328 68.6875 44.6484 68.2188 42.4453 67.2812C40.2578 66.3594 38.3906 65.0703 36.8438 63.4141C35.3125 61.7578 34.1328 59.7891 33.3047 57.5078C32.4922 55.2266 32.0859 52.7266 32.0859 50.0078C32.0859 47.3984 32.5156 44.9766 33.375 42.7422C34.25 40.5078 35.4688 38.5781 37.0312 36.9531C38.6094 35.3125 40.4922 34.0312 42.6797 33.1094C44.8672 32.1875 47.2734 31.7266 49.8984 31.7266C51.9922 31.7266 53.9922 32.0391 55.8984 32.6641C57.8203 33.2734 59.5547 34.1641 61.1016 35.3359C62.6641 36.4922 64 37.9062 65.1094 39.5781C66.2188 41.25 67.0156 43.1406 67.5 45.25Z" fill="white"/>
<path d="M103.875 70.3594C104.156 67.0469 104.219 63.875 104.062 60.8438C103.938 57.8125 103.688 54.7969 103.312 51.7969C102.938 48.7969 102.5 45.75 102 42.6562C101.5 39.5625 101.047 36.3125 100.641 32.9062C100.641 32.8125 100.625 32.6562 100.594 32.4375C100.594 32.2188 100.594 31.9844 100.594 31.7344C100.594 31.4531 100.594 31.2031 100.594 30.9844C100.625 30.7656 100.641 30.6094 100.641 30.5156H102.281C102.375 31.0781 102.516 31.9531 102.703 33.1406C102.922 34.3281 103.156 35.6719 103.406 37.1719C103.688 38.6719 103.969 40.25 104.25 41.9062C104.562 43.5625 104.844 45.1406 105.094 46.6406C105.375 48.1406 105.625 49.4844 105.844 50.6719C106.062 51.8594 106.234 52.7344 106.359 53.2969C106.359 53.3906 106.391 53.5625 106.453 53.8125C106.547 54.0312 106.625 54.2656 106.688 54.5156C106.781 54.7656 106.859 55.0156 106.922 55.2656C107.016 55.4844 107.094 55.6406 107.156 55.7344C107.25 55.4844 107.438 55.0625 107.719 54.4688C108.031 53.8438 108.359 53.1875 108.703 52.5C109.047 51.7812 109.375 51.125 109.688 50.5312C110 49.9062 110.234 49.4688 110.391 49.2188C110.891 48.3125 111.531 47.4844 112.312 46.7344C113.094 45.9844 113.859 45.5156 114.609 45.3281C115.359 45.1406 116.016 45.3281 116.578 45.8906C117.172 46.4219 117.547 47.5312 117.703 49.2188C117.734 49.625 117.766 50.25 117.797 51.0938C117.859 51.9375 117.922 52.9062 117.984 54C118.047 55.0625 118.109 56.1875 118.172 57.375C118.234 58.5625 118.281 59.6875 118.312 60.75C118.375 61.8125 118.422 62.7656 118.453 63.6094C118.516 64.4531 118.547 65.0781 118.547 65.4844C118.891 65.9219 119.141 66.4375 119.297 67.0312C119.484 67.5938 119.5 68.1562 119.344 68.7188C118.719 68.9375 118.188 68.9219 117.75 68.6719C117.312 68.4219 116.938 68.0781 116.625 67.6406C116.312 67.1719 116.047 66.6562 115.828 66.0938C115.609 65.5312 115.422 65.0469 115.266 64.6406C115.328 63.4531 115.375 62.1719 115.406 60.7969C115.438 59.4219 115.422 58.0312 115.359 56.625C115.328 55.1875 115.234 53.7656 115.078 52.3594C114.953 50.9531 114.75 49.625 114.469 48.375C113.906 48.0938 113.375 48.2031 112.875 48.7031C112.406 49.2031 111.953 49.9688 111.516 51C111.109 52 110.719 53.1875 110.344 54.5625C109.969 55.9375 109.609 57.3906 109.266 58.9219C108.922 60.4219 108.578 61.9219 108.234 63.4219C107.922 64.9219 107.609 66.2812 107.297 67.5C107.016 68.7188 106.719 69.7344 106.406 70.5469C106.125 71.3594 105.828 71.8438 105.516 72L103.875 70.3594ZM125.859 70.3594C126.141 67.0469 126.203 63.875 126.047 60.8438C125.922 57.8125 125.672 54.7969 125.297 51.7969C124.922 48.7969 124.484 45.75 123.984 42.6562C123.484 39.5625 123.031 36.3125 122.625 32.9062C122.625 32.8125 122.609 32.6562 122.578 32.4375C122.578 32.2188 122.578 31.9844 122.578 31.7344C122.578 31.4531 122.578 31.2031 122.578 30.9844C122.609 30.7656 122.625 30.6094 122.625 30.5156H124.266C124.359 31.0781 124.5 31.9531 124.688 33.1406C124.906 34.3281 125.141 35.6719 125.391 37.1719C125.672 38.6719 125.953 40.25 126.234 41.9062C126.547 43.5625 126.828 45.1406 127.078 46.6406C127.359 48.1406 127.609 49.4844 127.828 50.6719C128.047 51.8594 128.219 52.7344 128.344 53.2969C128.344 53.3906 128.375 53.5625 128.438 53.8125C128.531 54.0312 128.609 54.2656 128.672 54.5156C128.766 54.7656 128.844 55.0156 128.906 55.2656C129 55.4844 129.078 55.6406 129.141 55.7344C129.234 55.4844 129.422 55.0625 129.703 54.4688C130.016 53.8438 130.344 53.1875 130.688 52.5C131.031 51.7812 131.359 51.125 131.672 50.5312C131.984 49.9062 132.219 49.4688 132.375 49.2188C132.875 48.3125 133.516 47.4844 134.297 46.7344C135.078 45.9844 135.844 45.5156 136.594 45.3281C137.344 45.1406 138 45.3281 138.562 45.8906C139.156 46.4219 139.531 47.5312 139.688 49.2188C139.719 49.625 139.75 50.25 139.781 51.0938C139.844 51.9375 139.906 52.9062 139.969 54C140.031 55.0625 140.094 56.1875 140.156 57.375C140.219 58.5625 140.266 59.6875 140.297 60.75C140.359 61.8125 140.406 62.7656 140.438 63.6094C140.5 64.4531 140.531 65.0781 140.531 65.4844C140.875 65.9219 141.125 66.4375 141.281 67.0312C141.469 67.5938 141.484 68.1562 141.328 68.7188C140.703 68.9375 140.172 68.9219 139.734 68.6719C139.297 68.4219 138.922 68.0781 138.609 67.6406C138.297 67.1719 138.031 66.6562 137.812 66.0938C137.594 65.5312 137.406 65.0469 137.25 64.6406C137.312 63.4531 137.359 62.1719 137.391 60.7969C137.422 59.4219 137.406 58.0312 137.344 56.625C137.312 55.1875 137.219 53.7656 137.062 52.3594C136.938 50.9531 136.734 49.625 136.453 48.375C135.891 48.0938 135.359 48.2031 134.859 48.7031C134.391 49.2031 133.938 49.9688 133.5 51C133.094 52 132.703 53.1875 132.328 54.5625C131.953 55.9375 131.594 57.3906 131.25 58.9219C130.906 60.4219 130.562 61.9219 130.219 63.4219C129.906 64.9219 129.594 66.2812 129.281 67.5C129 68.7188 128.703 69.7344 128.391 70.5469C128.109 71.3594 127.812 71.8438 127.5 72L125.859 70.3594ZM144.609 69.5625C144.547 69.4375 144.469 69.2031 144.375 68.8594C144.281 68.4844 144.188 68.0781 144.094 67.6406C144 67.2031 143.922 66.7812 143.859 66.375C143.797 65.9688 143.766 65.6719 143.766 65.4844V42.7031C143.766 42.3906 143.906 42.1719 144.188 42.0469C144.469 41.9219 144.781 41.8594 145.125 41.8594C145.5 41.8281 145.828 41.8281 146.109 41.8594C146.422 41.8906 146.594 41.9062 146.625 41.9062V67.125C146.625 67.6562 146.797 68.0938 147.141 68.4375C147.484 68.7812 147.891 69.0625 148.359 69.2812C148.828 69.4688 149.312 69.5938 149.812 69.6562C150.312 69.6875 150.734 69.6562 151.078 69.5625C151.516 70.2188 151.5 70.75 151.031 71.1562C150.594 71.5312 149.953 71.75 149.109 71.8125C148.297 71.8438 147.438 71.6875 146.531 71.3438C145.656 70.9688 145.016 70.375 144.609 69.5625ZM142.969 34.5469C142.969 33.6406 143.328 33.0625 144.047 32.8125C144.766 32.5312 145.5 32.5625 146.25 32.9062V35.3906C146.156 35.4219 145.984 35.4531 145.734 35.4844C145.516 35.4844 145.266 35.4844 144.984 35.4844C144.734 35.4844 144.484 35.4844 144.234 35.4844C144.016 35.4531 143.859 35.4219 143.766 35.3906C143.641 35.3594 143.469 35.2344 143.25 35.0156C143.062 34.7969 142.969 34.6406 142.969 34.5469ZM167.391 71.2031C167.453 69.9531 167.484 68.6406 167.484 67.2656C167.516 65.8594 167.5 64.4531 167.438 63.0469C167.375 61.6406 167.266 60.25 167.109 58.875C166.984 57.4688 166.797 56.1406 166.547 54.8906C166.109 52.6094 165.547 50.875 164.859 49.6875C164.203 48.4688 163.5 47.8281 162.75 47.7656C162.031 47.6719 161.344 48.1562 160.688 49.2188C160.062 50.25 159.578 51.875 159.234 54.0938C159.172 54.4375 159.094 54.9688 159 55.6875C158.906 56.4062 158.797 57.2188 158.672 58.125C158.578 59.0312 158.469 60 158.344 61.0312C158.25 62.0312 158.141 62.9844 158.016 63.8906C157.922 64.7969 157.844 65.6094 157.781 66.3281C157.719 67.0469 157.672 67.5781 157.641 67.9219C157.453 68.4219 157.094 68.7188 156.562 68.8125C156.062 68.9062 155.594 68.875 155.156 68.7188L153.562 44.3438C153.531 43.9375 153.625 43.5938 153.844 43.3125C154.062 43 154.312 42.7969 154.594 42.7031C154.875 42.5781 155.156 42.5781 155.438 42.7031C155.719 42.8281 155.906 43.1094 156 43.5469L157.641 50.8125C158.609 48.4688 159.5 46.8125 160.312 45.8438C161.156 44.8438 161.938 44.3281 162.656 44.2969C163.375 44.2656 164.062 44.6094 164.719 45.3281C165.375 46.0469 165.984 46.9219 166.547 47.9531C167.141 48.9531 167.703 50.0312 168.234 51.1875C168.766 52.3125 169.297 53.2812 169.828 54.0938C171.109 49.6875 172.562 46.5156 174.188 44.5781C175.844 42.6094 177.422 41.7969 178.922 42.1406C180.453 42.4844 181.797 43.9531 182.953 46.5469C184.109 49.1094 184.875 52.7188 185.25 57.375C185.312 58.0938 185.359 59.0469 185.391 60.2344C185.422 61.3906 185.438 62.5312 185.438 63.6562C185.438 64.7812 185.422 65.7656 185.391 66.6094C185.359 67.4219 185.312 67.8594 185.25 67.9219L184.453 68.7188L182.812 67.125C183 65.5 183.047 63.8125 182.953 62.0625C182.891 60.2812 182.719 58.5 182.438 56.7188C182.188 54.9375 181.875 53.2031 181.5 51.5156C181.125 49.8281 180.75 48.25 180.375 46.7812C179.938 45.5312 179.406 44.8125 178.781 44.625C178.156 44.4062 177.516 44.5156 176.859 44.9531C176.234 45.3594 175.656 45.9844 175.125 46.8281C174.594 47.6406 174.188 48.4375 173.906 49.2188C173.719 49.6875 173.484 50.3125 173.203 51.0938C172.953 51.875 172.703 52.6562 172.453 53.4375C172.203 54.2188 171.984 54.9062 171.797 55.5C171.609 56.0938 171.5 56.4375 171.469 56.5312C171.344 57.0938 171.188 58.0625 171 59.4375C170.844 60.8125 170.672 62.2812 170.484 63.8438C170.328 65.4062 170.188 66.8906 170.062 68.2969C169.938 69.6719 169.859 70.6406 169.828 71.2031C169.828 71.6719 169.703 71.9375 169.453 72C169.203 72.0625 168.922 72.0312 168.609 71.9062C168.266 71.7812 167.859 71.5469 167.391 71.2031ZM188.953 69.5625C188.891 69.4375 188.812 69.2031 188.719 68.8594C188.625 68.4844 188.531 68.0781 188.438 67.6406C188.344 67.2031 188.266 66.7812 188.203 66.375C188.141 65.9688 188.109 65.6719 188.109 65.4844V42.7031C188.109 42.3906 188.25 42.1719 188.531 42.0469C188.812 41.9219 189.125 41.8594 189.469 41.8594C189.844 41.8281 190.172 41.8281 190.453 41.8594C190.766 41.8906 190.938 41.9062 190.969 41.9062V67.125C190.969 67.6562 191.141 68.0938 191.484 68.4375C191.828 68.7812 192.234 69.0625 192.703 69.2812C193.172 69.4688 193.656 69.5938 194.156 69.6562C194.656 69.6875 195.078 69.6562 195.422 69.5625C195.859 70.2188 195.844 70.75 195.375 71.1562C194.938 71.5312 194.297 71.75 193.453 71.8125C192.641 71.8438 191.781 71.6875 190.875 71.3438C190 70.9688 189.359 70.375 188.953 69.5625ZM187.312 34.5469C187.312 33.6406 187.672 33.0625 188.391 32.8125C189.109 32.5312 189.844 32.5625 190.594 32.9062V35.3906C190.5 35.4219 190.328 35.4531 190.078 35.4844C189.859 35.4844 189.609 35.4844 189.328 35.4844C189.078 35.4844 188.828 35.4844 188.578 35.4844C188.359 35.4531 188.203 35.4219 188.109 35.3906C187.984 35.3594 187.812 35.2344 187.594 35.0156C187.406 34.7969 187.312 34.6406 187.312 34.5469Z" fill="black"/>
</svg>
