<svg width="99" height="99" viewBox="0 0 99 99" fill="none" xmlns="http://www.w3.org/2000/svg">
<circle cx="49.5" cy="49.5" r="49.5" fill="#E77373"/>
<path d="M26.4609 66.5312C26.6328 65.0625 26.8672 63.4062 27.1641 61.5625C27.4766 59.7188 27.8359 57.7891 28.2422 55.7734C28.6641 53.7422 29.1172 51.6797 29.6016 49.5859C30.1016 47.4766 30.625 45.4297 31.1719 43.4453C31.7344 41.4453 32.3125 39.5547 32.9062 37.7734C33.5 35.9922 34.1016 34.4062 34.7109 33.0156L40.125 32.6875C40.5938 33.5938 41.0938 34.6484 41.625 35.8516C42.1719 37.0547 42.7344 38.3516 43.3125 39.7422C43.9062 41.1172 44.5078 42.5625 45.1172 44.0781C45.7266 45.5938 46.3281 47.1328 46.9219 48.6953C47.5156 50.2422 48.0938 51.7812 48.6562 53.3125C49.2188 54.8438 49.75 56.3203 50.25 57.7422C50.5625 56.1172 50.9375 54.3047 51.375 52.3047C51.8125 50.2891 52.3047 48.2031 52.8516 46.0469C53.4141 43.875 54.0234 41.6797 54.6797 39.4609C55.3359 37.2266 56.0391 35.0781 56.7891 33.0156L63.1641 32.6875C64.1016 35.1719 65.1094 38.0781 66.1875 41.4062C67.1094 44.2656 68.1562 47.75 69.3281 51.8594C70.5156 55.9688 71.7422 60.6797 73.0078 65.9922L64.8516 67.6797C64.8359 67.0234 64.7812 66.1953 64.6875 65.1953C64.6094 64.1797 64.4922 63.0547 64.3359 61.8203C64.1953 60.5859 64.0234 59.2656 63.8203 57.8594C63.6172 56.4375 63.3906 54.9844 63.1406 53.5C62.9062 52.0156 62.6406 50.5234 62.3438 49.0234C62.0625 47.5078 61.7578 46.0469 61.4297 44.6406C61.1172 43.2188 60.7812 41.875 60.4219 40.6094C60.0781 39.3281 59.7266 38.1719 59.3672 37.1406C58.8203 38.6562 58.3047 40.2188 57.8203 41.8281C57.3359 43.4219 56.8828 45.0156 56.4609 46.6094C56.0547 48.2031 55.6719 49.7656 55.3125 51.2969C54.9688 52.8281 54.6562 54.2734 54.375 55.6328C53.7188 58.8359 53.1484 61.9688 52.6641 65.0312L47.0859 65.7578C47.0859 65.7734 46.9531 65.3828 46.6875 64.5859C46.4375 63.7734 46.0781 62.6875 45.6094 61.3281C45.1406 59.9531 44.5859 58.3516 43.9453 56.5234C43.3047 54.6953 42.6094 52.7656 41.8594 50.7344C41.1094 48.7031 40.3125 46.6172 39.4688 44.4766C38.6406 42.3359 37.8047 40.2734 36.9609 38.2891C36.3047 40.3516 35.7422 42.5781 35.2734 44.9688C34.8047 47.3594 34.4062 49.8281 34.0781 52.375C33.7656 54.9219 33.5078 57.5 33.3047 60.1094C33.1016 62.7031 32.9453 65.2266 32.8359 67.6797L26.4609 66.5312Z" fill="white"/>
</svg>
